<mxfile host="65bd71144e" modified="2020-11-11T16:47:14.686Z" agent="5.0 (Windows NT 10.0; Win64; x64) AppleWebKit/537.36 (KHTML, like Gecko) Code/1.51.0 Chrome/83.0.4103.122 Electron/9.3.3 Safari/537.36" etag="v-C-OUa1KuBdiv1rhakk" version="13.6.5">
    <diagram id="zOExnr27sMriez7aHx05" name="Page-1">
        <mxGraphModel dx="1210" dy="701" grid="1" gridSize="10" guides="1" tooltips="1" connect="1" arrows="1" fold="1" page="1" pageScale="1" pageWidth="850" pageHeight="1100" math="0" shadow="0">
            <root>
                <mxCell id="0"/>
                <mxCell id="1" parent="0"/>
                <mxCell id="2" value="Fac" style="ellipse;whiteSpace=wrap;html=1;aspect=fixed;" parent="1" vertex="1">
                    <mxGeometry x="30" y="420" width="80" height="80" as="geometry"/>
                </mxCell>
                <mxCell id="4" value="" style="endArrow=classic;html=1;exitX=1.015;exitY=0.635;exitDx=0;exitDy=0;exitPerimeter=0;" parent="1" source="2" target="5" edge="1">
                    <mxGeometry width="50" height="50" relative="1" as="geometry">
                        <mxPoint x="360" y="580" as="sourcePoint"/>
                        <mxPoint x="210" y="370" as="targetPoint"/>
                    </mxGeometry>
                </mxCell>
                <mxCell id="5" value="SubMibCommand" style="shape=cylinder2;whiteSpace=wrap;html=1;boundedLbl=1;backgroundOutline=1;size=15;" parent="1" vertex="1">
                    <mxGeometry x="230" y="330" width="100" height="80" as="geometry"/>
                </mxCell>
                <mxCell id="6" value="&lt;font style=&quot;font-size: 10px&quot;&gt;FacDecisionCommand&lt;/font&gt;" style="shape=cylinder2;whiteSpace=wrap;html=1;boundedLbl=1;backgroundOutline=1;size=15;" parent="1" vertex="1">
                    <mxGeometry x="230" y="430" width="110" height="80" as="geometry"/>
                </mxCell>
                <mxCell id="7" value="FacCaseSubmit" style="shape=cylinder2;whiteSpace=wrap;html=1;boundedLbl=1;backgroundOutline=1;size=15;" parent="1" vertex="1">
                    <mxGeometry x="230" y="520" width="100" height="80" as="geometry"/>
                </mxCell>
                <mxCell id="8" value="" style="endArrow=classic;html=1;entryX=-0.033;entryY=0.52;entryDx=0;entryDy=0;entryPerimeter=0;" parent="1" target="6" edge="1">
                    <mxGeometry width="50" height="50" relative="1" as="geometry">
                        <mxPoint x="111" y="472" as="sourcePoint"/>
                        <mxPoint x="240" y="380.2369668246446" as="targetPoint"/>
                    </mxGeometry>
                </mxCell>
                <mxCell id="9" value="" style="endArrow=classic;html=1;entryX=-0.012;entryY=0.655;entryDx=0;entryDy=0;entryPerimeter=0;exitX=1.005;exitY=0.615;exitDx=0;exitDy=0;exitPerimeter=0;" parent="1" source="2" target="7" edge="1">
                    <mxGeometry width="50" height="50" relative="1" as="geometry">
                        <mxPoint x="110" y="370" as="sourcePoint"/>
                        <mxPoint x="250" y="390.2369668246446" as="targetPoint"/>
                    </mxGeometry>
                </mxCell>
                <mxCell id="10" value="Mib Processor" style="ellipse;whiteSpace=wrap;html=1;aspect=fixed;" parent="1" vertex="1">
                    <mxGeometry x="450" y="340" width="80" height="80" as="geometry"/>
                </mxCell>
                <mxCell id="14" value="Correspondence&lt;br&gt;Processor" style="ellipse;whiteSpace=wrap;html=1;aspect=fixed;" parent="1" vertex="1">
                    <mxGeometry x="450" y="430" width="100" height="100" as="geometry"/>
                </mxCell>
                <mxCell id="15" value="FacCase&lt;br&gt;Processor" style="ellipse;whiteSpace=wrap;html=1;aspect=fixed;" parent="1" vertex="1">
                    <mxGeometry x="440" y="540" width="110" height="110" as="geometry"/>
                </mxCell>
                <mxCell id="16" value="Comand" style="text;html=1;strokeColor=none;fillColor=none;align=center;verticalAlign=middle;whiteSpace=wrap;rounded=0;rotation=-30;" parent="1" vertex="1">
                    <mxGeometry x="140" y="410" width="40" height="20" as="geometry"/>
                </mxCell>
                <mxCell id="17" value="Comand" style="text;html=1;strokeColor=none;fillColor=none;align=center;verticalAlign=middle;whiteSpace=wrap;rounded=0;" parent="1" vertex="1">
                    <mxGeometry x="160" y="450" width="40" height="20" as="geometry"/>
                </mxCell>
                <mxCell id="18" value="Comand" style="text;html=1;strokeColor=none;fillColor=none;align=center;verticalAlign=middle;whiteSpace=wrap;rounded=0;rotation=30;" parent="1" vertex="1">
                    <mxGeometry x="160" y="500" width="50" height="20" as="geometry"/>
                </mxCell>
                <mxCell id="19" value="" style="endArrow=classic;html=1;entryX=0.996;entryY=0.625;entryDx=0;entryDy=0;entryPerimeter=0;exitX=0;exitY=0.5;exitDx=0;exitDy=0;" parent="1" source="10" target="5" edge="1">
                    <mxGeometry width="50" height="50" relative="1" as="geometry">
                        <mxPoint x="440" y="380" as="sourcePoint"/>
                        <mxPoint x="390" y="340" as="targetPoint"/>
                    </mxGeometry>
                </mxCell>
                <mxCell id="20" value="Subscribe" style="text;html=1;strokeColor=none;fillColor=none;align=center;verticalAlign=middle;whiteSpace=wrap;rounded=0;" parent="1" vertex="1">
                    <mxGeometry x="380" y="350" width="40" height="20" as="geometry"/>
                </mxCell>
                <mxCell id="25" value="" style="endArrow=classic;html=1;entryX=0.996;entryY=0.625;entryDx=0;entryDy=0;entryPerimeter=0;" parent="1" edge="1">
                    <mxGeometry width="50" height="50" relative="1" as="geometry">
                        <mxPoint x="450" y="480" as="sourcePoint"/>
                        <mxPoint x="339.9999999999999" y="480" as="targetPoint"/>
                    </mxGeometry>
                </mxCell>
                <mxCell id="26" value="Subscribe" style="text;html=1;strokeColor=none;fillColor=none;align=center;verticalAlign=middle;whiteSpace=wrap;rounded=0;" parent="1" vertex="1">
                    <mxGeometry x="390.4" y="450" width="40" height="20" as="geometry"/>
                </mxCell>
                <mxCell id="27" value="" style="endArrow=classic;html=1;entryX=0.996;entryY=0.625;entryDx=0;entryDy=0;entryPerimeter=0;exitX=0;exitY=0.5;exitDx=0;exitDy=0;" parent="1" source="15" edge="1">
                    <mxGeometry width="50" height="50" relative="1" as="geometry">
                        <mxPoint x="450.4" y="570" as="sourcePoint"/>
                        <mxPoint x="329.9999999999999" y="570" as="targetPoint"/>
                    </mxGeometry>
                </mxCell>
                <mxCell id="28" value="Subscribe" style="text;html=1;strokeColor=none;fillColor=none;align=center;verticalAlign=middle;whiteSpace=wrap;rounded=0;" parent="1" vertex="1">
                    <mxGeometry x="380.4" y="540" width="40" height="20" as="geometry"/>
                </mxCell>
                <mxCell id="29" value="MibCompleteEvent" style="shape=cylinder;whiteSpace=wrap;html=1;boundedLbl=1;backgroundOutline=1;" parent="1" vertex="1">
                    <mxGeometry x="630" y="340" width="120" height="80" as="geometry"/>
                </mxCell>
                <mxCell id="33" value="" style="endArrow=classic;html=1;entryX=0;entryY=0.5;entryDx=0;entryDy=0;" parent="1" target="29" edge="1">
                    <mxGeometry width="50" height="50" relative="1" as="geometry">
                        <mxPoint x="530" y="390" as="sourcePoint"/>
                        <mxPoint x="580" y="340" as="targetPoint"/>
                    </mxGeometry>
                </mxCell>
                <mxCell id="34" value="Event" style="text;html=1;strokeColor=none;fillColor=none;align=center;verticalAlign=middle;whiteSpace=wrap;rounded=0;" parent="1" vertex="1">
                    <mxGeometry x="550" y="360" width="40" height="20" as="geometry"/>
                </mxCell>
                <mxCell id="36" value="Event" style="text;html=1;strokeColor=none;fillColor=none;align=center;verticalAlign=middle;whiteSpace=wrap;rounded=0;" parent="1" vertex="1">
                    <mxGeometry x="560" y="370" width="40" height="20" as="geometry"/>
                </mxCell>
                <mxCell id="37" value="FacDecisionEvent" style="shape=cylinder;whiteSpace=wrap;html=1;boundedLbl=1;backgroundOutline=1;" parent="1" vertex="1">
                    <mxGeometry x="650" y="430" width="120" height="80" as="geometry"/>
                </mxCell>
                <mxCell id="38" value="" style="endArrow=classic;html=1;entryX=0;entryY=0.5;entryDx=0;entryDy=0;" parent="1" target="37" edge="1">
                    <mxGeometry width="50" height="50" relative="1" as="geometry">
                        <mxPoint x="550" y="480" as="sourcePoint"/>
                        <mxPoint x="600" y="430" as="targetPoint"/>
                    </mxGeometry>
                </mxCell>
                <mxCell id="39" value="Event" style="text;html=1;strokeColor=none;fillColor=none;align=center;verticalAlign=middle;whiteSpace=wrap;rounded=0;" parent="1" vertex="1">
                    <mxGeometry x="580" y="460" width="40" height="20" as="geometry"/>
                </mxCell>
                <mxCell id="40" value="FacCaseEvent" style="shape=cylinder;whiteSpace=wrap;html=1;boundedLbl=1;backgroundOutline=1;" parent="1" vertex="1">
                    <mxGeometry x="650" y="550" width="120" height="80" as="geometry"/>
                </mxCell>
                <mxCell id="41" value="" style="endArrow=classic;html=1;entryX=0;entryY=0.5;entryDx=0;entryDy=0;" parent="1" target="40" edge="1">
                    <mxGeometry width="50" height="50" relative="1" as="geometry">
                        <mxPoint x="550" y="600" as="sourcePoint"/>
                        <mxPoint x="600" y="550" as="targetPoint"/>
                    </mxGeometry>
                </mxCell>
                <mxCell id="42" value="Event" style="text;html=1;strokeColor=none;fillColor=none;align=center;verticalAlign=middle;whiteSpace=wrap;rounded=0;" parent="1" vertex="1">
                    <mxGeometry x="580" y="580" width="40" height="20" as="geometry"/>
                </mxCell>
                <mxCell id="43" value="Hub&lt;br&gt;Processor" style="ellipse;whiteSpace=wrap;html=1;aspect=fixed;" parent="1" vertex="1">
                    <mxGeometry x="360.4" y="90" width="80" height="80" as="geometry"/>
                </mxCell>
                <mxCell id="44" value="" style="endArrow=classic;html=1;entryX=0.5;entryY=0;entryDx=0;entryDy=0;" parent="1" target="29" edge="1">
                    <mxGeometry width="50" height="50" relative="1" as="geometry">
                        <mxPoint x="440.4" y="130" as="sourcePoint"/>
                        <mxPoint x="490.4" y="80" as="targetPoint"/>
                    </mxGeometry>
                </mxCell>
                <mxCell id="46" value="Subscribe" style="text;html=1;strokeColor=none;fillColor=none;align=center;verticalAlign=middle;whiteSpace=wrap;rounded=0;" parent="1" vertex="1">
                    <mxGeometry x="530" y="180" width="40" height="20" as="geometry"/>
                </mxCell>
                <mxCell id="48" value="" style="endArrow=classic;html=1;entryX=1.01;entryY=0.425;entryDx=0;entryDy=0;entryPerimeter=0;curved=1;" parent="1" source="43" target="37" edge="1">
                    <mxGeometry width="50" height="50" relative="1" as="geometry">
                        <mxPoint x="470.0000000000001" y="90" as="sourcePoint"/>
                        <mxPoint x="719.6" y="300" as="targetPoint"/>
                        <Array as="points">
                            <mxPoint x="770" y="120"/>
                        </Array>
                    </mxGeometry>
                </mxCell>
                <mxCell id="49" value="Subscribe" style="text;html=1;strokeColor=none;fillColor=none;align=center;verticalAlign=middle;whiteSpace=wrap;rounded=0;" parent="1" vertex="1">
                    <mxGeometry x="600" y="120" width="40" height="20" as="geometry"/>
                </mxCell>
                <mxCell id="50" value="" style="endArrow=classic;html=1;curved=1;" parent="1" target="40" edge="1">
                    <mxGeometry width="50" height="50" relative="1" as="geometry">
                        <mxPoint x="450.38531959198554" y="138.9163870029272" as="sourcePoint"/>
                        <mxPoint x="781.2" y="474" as="targetPoint"/>
                        <Array as="points">
                            <mxPoint x="780" y="130"/>
                            <mxPoint x="760" y="290"/>
                        </Array>
                    </mxGeometry>
                </mxCell>
            </root>
        </mxGraphModel>
    </diagram>
</mxfile>